<svg id="svg" version="1.1" width="400" height="400" xmlns="http://www.w3.org/2000/svg" xmlns:xlink="http://www.w3.org/1999/xlink" style="display: block;"><g id="svgg"><path id="path0" d="M177.377 111.953 C 177.631 111.991,178.006 111.990,178.211 111.951 C 178.416 111.911,178.208 111.880,177.750 111.881 C 177.292 111.882,177.124 111.915,177.377 111.953 " stroke="none" fill="#5555aa" fill-rule="evenodd"></path><path id="path1" d="M193.667 0.186 C 191.698 0.380,188.099 0.818,187.000 0.997 C 186.496 1.079,185.521 1.234,184.833 1.342 C 184.146 1.450,183.171 1.639,182.667 1.762 C 182.162 1.886,181.000 2.147,180.083 2.342 C 174.974 3.433,167.917 5.795,162.336 8.283 C 159.805 9.411,154.462 12.154,153.045 13.053 C 152.657 13.299,152.301 13.500,152.253 13.500 C 151.978 13.500,143.044 19.393,142.667 19.823 C 142.621 19.876,142.283 20.139,141.917 20.409 C 141.550 20.678,141.212 20.941,141.167 20.992 C 141.121 21.043,140.783 21.309,140.417 21.581 C 139.498 22.265,139.281 22.440,137.931 23.585 C 137.281 24.136,136.487 24.801,136.167 25.062 C 133.949 26.872,128.324 32.429,125.500 35.599 C 125.087 36.062,124.469 36.756,124.125 37.143 C 123.781 37.529,123.500 37.890,123.500 37.944 C 123.500 37.999,123.367 38.166,123.205 38.314 C 122.970 38.529,121.029 40.898,120.053 42.162 C 119.135 43.350,117.085 46.175,116.412 47.180 C 115.956 47.860,115.544 48.454,115.495 48.500 C 115.334 48.652,111.565 54.736,111.159 55.500 C 110.940 55.913,110.674 56.362,110.569 56.500 C 109.360 58.078,103.940 69.596,102.301 74.070 C 100.688 78.474,99.134 83.031,98.092 86.417 C 97.838 87.242,97.572 88.104,97.501 88.333 C 97.430 88.563,97.279 89.087,97.166 89.500 C 97.052 89.912,96.858 90.587,96.734 91.000 C 96.421 92.046,95.992 93.640,95.838 94.333 C 95.767 94.654,95.561 95.479,95.381 96.167 C 95.200 96.854,94.969 97.792,94.867 98.250 C 94.764 98.708,94.498 99.871,94.276 100.833 C 94.053 101.796,93.782 103.071,93.673 103.667 C 93.565 104.263,93.374 105.237,93.250 105.833 C 92.941 107.318,92.454 110.145,92.161 112.167 C 92.061 112.854,91.910 113.829,91.825 114.333 C 91.601 115.668,91.222 118.785,91.006 121.083 C 90.903 122.183,90.745 123.735,90.656 124.532 C 90.567 125.329,90.454 126.791,90.404 127.782 C 90.354 128.773,90.243 130.696,90.157 132.055 C 89.726 138.848,90.105 151.158,90.998 159.333 C 91.083 160.112,91.235 161.537,91.336 162.500 C 91.438 163.462,91.624 164.887,91.751 165.667 C 91.878 166.446,92.060 167.646,92.156 168.333 C 92.425 170.256,92.841 172.843,93.000 173.583 C 93.079 173.950,93.230 174.737,93.336 175.333 C 93.536 176.464,93.611 176.842,94.184 179.583 C 94.496 181.074,94.959 183.190,95.333 184.833 C 95.406 185.154,95.729 186.429,96.050 187.667 C 96.576 189.691,96.841 190.685,97.585 193.417 C 97.710 193.875,98.087 195.150,98.422 196.250 C 98.757 197.350,99.093 198.475,99.168 198.750 C 99.243 199.025,99.385 199.475,99.484 199.750 C 99.895 200.889,100.699 203.285,100.826 203.750 C 101.028 204.483,102.780 209.420,102.965 209.778 C 103.053 209.946,103.289 210.571,103.490 211.167 C 103.691 211.762,103.922 212.400,104.003 212.583 C 104.084 212.767,104.720 214.330,105.417 216.057 C 106.113 217.784,106.748 219.322,106.828 219.474 C 107.043 219.884,107.667 221.318,107.667 221.403 C 107.667 221.443,107.932 222.062,108.257 222.779 C 108.582 223.497,108.914 224.233,108.995 224.417 C 111.202 229.400,115.599 238.006,119.020 244.038 L 120.317 246.326 119.414 248.205 C 117.142 252.928,116.059 258.642,116.672 262.667 C 116.762 263.262,116.909 264.237,116.998 264.833 C 117.598 268.842,120.020 274.426,122.249 276.939 C 122.341 277.044,122.747 277.516,123.151 277.988 C 125.873 281.173,130.114 284.229,133.583 285.504 C 133.767 285.572,134.217 285.748,134.583 285.895 C 135.248 286.163,136.875 286.629,137.667 286.779 C 137.896 286.822,138.571 286.978,139.167 287.124 C 140.789 287.524,146.790 287.515,148.500 287.111 C 149.188 286.948,150.087 286.735,150.500 286.638 C 158.040 284.864,164.988 279.179,168.392 272.000 C 171.447 265.556,171.910 258.308,169.694 251.583 C 169.194 250.066,167.513 246.481,167.070 245.987 C 166.940 245.842,166.833 245.669,166.833 245.603 C 166.833 245.109,163.170 240.859,161.646 239.585 C 159.160 237.506,156.926 236.158,153.750 234.819 C 150.197 233.320,144.522 232.661,139.851 233.204 C 139.369 233.260,138.971 232.635,136.011 227.167 C 135.441 226.112,134.828 224.987,134.649 224.667 C 134.234 223.921,131.051 217.476,130.286 215.833 C 129.380 213.886,128.833 212.664,128.833 212.583 C 128.833 212.542,128.637 212.076,128.397 211.546 C 127.704 210.019,126.818 207.852,125.718 205.000 C 125.489 204.404,125.237 203.767,125.159 203.583 C 125.081 203.400,124.903 202.912,124.763 202.500 C 124.623 202.088,124.204 200.887,123.831 199.833 C 123.457 198.779,122.960 197.317,122.726 196.583 C 122.491 195.850,122.129 194.725,121.922 194.083 C 121.715 193.442,121.449 192.579,121.332 192.167 C 121.215 191.754,121.011 191.079,120.880 190.667 C 120.749 190.254,120.342 188.792,119.976 187.417 C 119.102 184.135,119.012 183.768,118.509 181.425 C 118.411 180.972,118.261 180.372,118.176 180.092 C 118.090 179.812,117.940 179.171,117.843 178.667 C 117.280 175.755,117.134 175.019,117.002 174.417 C 116.792 173.458,116.352 170.858,116.015 168.583 C 115.920 167.942,115.734 166.704,115.601 165.833 C 115.232 163.397,114.785 159.249,114.426 154.917 C 113.511 143.877,113.665 131.050,114.839 120.417 C 114.930 119.592,115.084 118.204,115.181 117.333 C 115.277 116.462,115.461 115.112,115.588 114.333 C 115.715 113.554,115.900 112.392,115.999 111.750 C 116.423 109.008,116.753 107.192,117.091 105.750 C 117.220 105.200,117.448 104.150,117.599 103.417 C 118.324 99.893,119.479 95.666,121.084 90.667 C 121.422 89.612,121.758 88.563,121.830 88.333 C 121.902 88.104,122.038 87.729,122.132 87.500 C 122.227 87.271,122.469 86.633,122.672 86.083 C 123.161 84.751,124.152 82.206,124.424 81.583 C 124.544 81.308,124.798 80.728,124.988 80.293 C 125.178 79.859,125.333 79.471,125.333 79.430 C 125.333 79.283,127.902 73.768,128.173 73.333 C 128.258 73.196,128.439 72.838,128.574 72.537 C 128.790 72.059,130.207 69.416,131.590 66.911 C 131.842 66.456,132.187 65.884,132.357 65.641 C 132.527 65.398,132.667 65.155,132.667 65.103 C 132.667 65.050,132.940 64.574,133.273 64.045 C 134.398 62.263,136.575 58.917,136.664 58.833 C 136.713 58.788,136.969 58.413,137.232 58.000 C 137.694 57.277,140.315 53.670,140.503 53.500 C 140.553 53.454,140.889 53.004,141.250 52.500 C 141.611 51.996,141.948 51.546,142.000 51.500 C 142.052 51.454,142.267 51.192,142.478 50.917 C 144.247 48.612,148.560 44.270,150.922 42.417 C 151.272 42.142,151.639 41.840,151.738 41.747 C 151.836 41.653,152.329 41.280,152.833 40.917 C 153.337 40.554,153.831 40.180,153.929 40.087 C 154.124 39.903,156.361 38.363,157.819 37.409 C 160.178 35.866,165.885 32.822,168.667 31.622 C 169.819 31.125,172.590 29.959,172.917 29.834 C 173.100 29.764,173.550 29.590,173.917 29.447 C 175.520 28.822,178.187 27.929,180.250 27.326 C 180.525 27.246,181.162 27.060,181.667 26.912 C 183.164 26.475,187.500 25.402,188.667 25.180 C 189.262 25.067,190.088 24.911,190.500 24.832 C 193.001 24.356,195.159 24.051,198.699 23.673 C 203.145 23.198,210.906 23.631,215.091 24.587 C 220.733 25.877,223.800 26.936,228.500 29.219 C 232.251 31.041,237.176 34.203,240.000 36.602 C 242.901 39.067,244.279 40.337,246.250 42.359 C 248.612 44.784,248.923 45.124,250.417 46.917 C 250.875 47.467,251.291 47.954,251.342 48.000 C 251.595 48.228,254.774 52.490,255.985 54.224 C 258.398 57.678,261.132 62.311,263.525 67.000 C 264.786 69.469,265.322 70.589,266.715 73.667 C 267.194 74.723,268.873 78.817,269.261 79.871 C 271.482 85.916,272.439 88.910,273.777 94.000 C 274.551 96.943,274.717 97.634,274.979 99.000 C 275.059 99.412,275.283 100.537,275.477 101.500 C 276.109 104.622,276.204 105.252,276.744 109.899 C 277.011 112.188,276.830 111.993,279.225 112.576 C 281.721 113.184,283.935 113.817,289.750 115.585 C 290.850 115.919,291.975 116.262,292.250 116.348 C 293.209 116.645,297.763 118.158,299.461 118.744 C 300.402 119.068,301.246 119.333,301.336 119.333 C 301.544 119.333,301.546 118.017,301.341 116.178 C 301.254 115.393,301.098 113.850,300.996 112.750 C 300.893 111.650,300.709 110.037,300.586 109.167 C 300.463 108.296,300.276 106.946,300.172 106.167 C 299.847 103.751,299.648 102.461,299.415 101.250 C 299.292 100.608,299.102 99.558,298.993 98.917 C 298.884 98.275,298.646 97.037,298.464 96.167 C 298.281 95.296,298.074 94.283,298.004 93.917 C 297.711 92.388,297.298 90.530,297.078 89.750 C 296.948 89.292,296.609 87.942,296.324 86.750 C 296.038 85.558,295.706 84.283,295.586 83.917 C 295.466 83.550,295.275 82.912,295.161 82.500 C 294.758 81.036,294.620 80.576,294.411 80.000 C 294.294 79.679,294.037 78.854,293.840 78.167 C 293.643 77.479,293.403 76.729,293.307 76.500 C 293.211 76.271,292.918 75.446,292.656 74.667 C 290.055 66.927,285.902 57.849,281.667 50.642 C 280.093 47.962,278.332 45.168,277.961 44.760 C 277.799 44.583,277.667 44.377,277.667 44.304 C 277.667 44.177,275.712 41.341,275.505 41.167 C 275.450 41.121,275.035 40.558,274.582 39.917 C 273.583 38.502,270.803 34.988,269.558 33.566 C 269.388 33.372,268.912 32.812,268.500 32.320 C 267.192 30.760,259.978 23.608,258.417 22.324 C 257.592 21.645,256.692 20.889,256.417 20.645 C 254.468 18.911,245.102 12.333,244.583 12.333 C 244.541 12.333,244.096 12.071,243.595 11.750 C 243.093 11.429,242.640 11.167,242.588 11.167 C 242.536 11.167,242.194 10.978,241.829 10.747 C 241.133 10.308,237.515 8.474,236.083 7.835 C 235.625 7.630,234.838 7.275,234.333 7.045 C 228.758 4.504,220.388 2.024,214.000 1.019 C 211.869 0.684,209.220 0.344,207.417 0.173 C 205.290 -0.028,195.748 -0.019,193.667 0.186 M175.417 111.956 C 168.403 112.514,160.468 116.711,156.581 121.917 C 156.307 122.283,155.989 122.683,155.874 122.804 C 155.591 123.103,154.667 124.454,154.667 124.568 C 154.667 124.619,154.418 125.055,154.114 125.538 C 150.383 131.462,149.482 140.205,151.841 147.583 C 153.344 152.286,156.932 157.507,160.639 160.386 C 163.768 162.815,167.438 164.646,170.833 165.470 C 171.246 165.570,172.108 165.783,172.750 165.943 C 174.473 166.372,180.890 166.376,182.667 165.949 C 183.354 165.783,184.254 165.569,184.667 165.472 C 187.439 164.820,193.134 162.085,194.083 160.949 C 194.175 160.840,194.679 160.423,195.204 160.024 C 196.216 159.255,197.944 157.497,198.760 156.406 C 199.029 156.045,199.386 155.600,199.552 155.417 C 200.058 154.859,201.595 152.322,202.189 151.063 L 202.750 149.875 205.500 149.732 C 209.286 149.535,219.498 149.583,222.833 149.813 C 227.271 150.120,229.992 150.341,231.417 150.509 C 232.150 150.595,233.050 150.696,233.417 150.732 C 234.181 150.809,236.412 151.100,238.000 151.331 C 238.596 151.417,239.683 151.571,240.417 151.672 C 241.150 151.774,242.237 151.957,242.833 152.079 C 243.429 152.202,244.442 152.389,245.083 152.496 C 246.854 152.791,247.981 153.006,249.083 153.258 C 249.633 153.383,250.833 153.645,251.750 153.840 C 252.667 154.035,254.167 154.380,255.083 154.607 C 256.000 154.834,257.012 155.084,257.333 155.163 C 258.193 155.374,261.185 156.180,261.667 156.331 C 261.896 156.403,262.421 156.556,262.833 156.671 C 266.269 157.629,273.776 160.128,275.631 160.930 C 275.932 161.060,276.251 161.167,276.341 161.167 C 276.430 161.167,276.822 161.310,277.210 161.484 C 277.599 161.659,279.342 162.380,281.083 163.086 C 282.825 163.793,284.550 164.507,284.917 164.673 C 285.283 164.839,286.146 165.229,286.833 165.540 C 287.521 165.851,288.418 166.251,288.826 166.428 C 290.582 167.189,298.502 171.249,300.551 172.439 C 301.083 172.747,301.542 173.000,301.572 173.000 C 301.603 173.000,302.657 173.600,303.917 174.333 C 305.176 175.067,306.233 175.667,306.265 175.667 C 306.297 175.667,306.645 175.882,307.037 176.145 C 307.429 176.408,308.575 177.135,309.583 177.760 C 311.379 178.873,315.347 181.477,316.833 182.518 C 318.774 183.877,320.550 185.162,321.975 186.239 C 322.832 186.887,323.735 187.567,323.982 187.750 C 324.574 188.190,326.894 190.040,327.000 190.158 C 327.046 190.208,327.533 190.623,328.083 191.079 C 332.701 194.904,340.162 202.207,343.500 206.167 C 344.002 206.762,344.526 207.362,344.665 207.500 C 344.804 207.637,345.218 208.125,345.584 208.583 C 345.950 209.042,346.375 209.567,346.528 209.750 C 347.339 210.723,349.103 213.007,349.549 213.664 C 349.831 214.078,350.111 214.454,350.173 214.500 C 350.346 214.630,353.723 219.454,353.849 219.752 C 353.887 219.843,354.424 220.683,355.042 221.620 C 355.661 222.557,356.167 223.370,356.167 223.428 C 356.167 223.485,356.335 223.767,356.542 224.055 C 356.748 224.343,356.999 224.730,357.100 224.914 C 357.201 225.099,357.521 225.662,357.812 226.167 C 358.103 226.671,358.574 227.533,358.858 228.083 C 359.143 228.633,359.423 229.121,359.481 229.167 C 359.597 229.259,362.814 235.724,363.234 236.708 C 363.788 238.010,364.046 238.604,364.337 239.250 C 364.980 240.678,365.295 241.433,365.415 241.833 C 365.484 242.063,365.599 242.325,365.671 242.417 C 365.742 242.508,365.990 243.146,366.221 243.833 C 366.453 244.521,366.770 245.383,366.926 245.750 C 367.082 246.117,367.347 246.867,367.514 247.417 C 367.680 247.967,368.013 249.054,368.253 249.833 C 368.802 251.614,369.499 254.210,369.664 255.083 C 369.734 255.450,369.913 256.350,370.062 257.083 C 371.190 262.617,371.500 265.662,371.500 271.186 C 371.500 275.955,371.216 279.153,370.459 282.917 C 370.275 283.833,370.087 284.771,370.043 285.000 C 369.906 285.703,369.159 288.522,368.806 289.667 C 368.301 291.308,367.285 294.050,366.708 295.333 C 366.522 295.746,366.241 296.383,366.082 296.750 C 365.753 297.514,365.004 299.000,364.277 300.333 C 364.002 300.837,363.630 301.550,363.449 301.917 C 363.269 302.283,362.869 302.979,362.560 303.462 C 362.252 303.945,362.000 304.374,362.000 304.415 C 362.000 304.456,361.787 304.811,361.527 305.203 C 361.267 305.596,360.685 306.479,360.235 307.167 C 359.441 308.380,357.354 311.332,357.172 311.500 C 357.122 311.546,356.861 311.883,356.591 312.250 C 356.322 312.617,356.059 312.954,356.009 313.000 C 355.958 313.046,355.619 313.458,355.256 313.917 C 354.117 315.351,353.666 315.834,350.500 319.001 C 347.823 321.680,346.514 322.835,343.421 325.250 C 343.068 325.525,342.136 326.180,341.348 326.706 C 340.561 327.231,339.842 327.719,339.750 327.789 C 339.374 328.077,338.167 328.833,338.084 328.833 C 338.034 328.833,337.681 329.031,337.298 329.272 C 335.806 330.214,334.023 331.135,330.417 332.827 C 327.829 334.041,322.716 335.781,319.083 336.684 C 315.697 337.527,315.332 337.608,313.917 337.843 C 313.275 337.949,312.188 338.135,311.500 338.256 C 310.276 338.471,308.410 338.678,304.763 339.004 C 302.392 339.216,293.644 339.214,291.175 339.000 C 285.725 338.530,284.720 338.409,280.667 337.741 C 279.796 337.597,278.671 337.413,278.167 337.332 C 277.662 337.252,276.725 337.067,276.083 336.921 C 275.442 336.776,274.542 336.584,274.083 336.496 C 272.717 336.231,272.032 336.068,269.583 335.421 C 268.300 335.082,266.987 334.742,266.667 334.664 C 265.255 334.324,259.855 332.557,257.467 331.655 C 255.184 330.792,251.956 329.481,251.324 329.160 L 250.731 328.859 250.153 329.388 C 248.576 330.831,247.854 331.467,247.186 332.000 C 246.785 332.321,246.296 332.733,246.100 332.917 C 245.905 333.100,245.392 333.535,244.960 333.883 C 244.528 334.231,244.079 334.606,243.962 334.716 C 243.778 334.890,242.595 335.851,241.833 336.444 C 241.696 336.552,240.935 337.152,240.143 337.778 C 237.907 339.546,237.687 339.718,236.000 341.024 C 234.331 342.315,234.303 342.337,231.023 344.833 C 229.092 346.303,228.550 346.833,228.977 346.833 C 229.072 346.833,229.734 347.104,230.450 347.435 C 232.338 348.309,233.537 348.850,233.917 349.001 C 234.100 349.074,234.588 349.282,235.000 349.463 C 239.082 351.256,248.103 354.550,251.083 355.337 C 251.358 355.410,252.371 355.702,253.333 355.988 C 255.964 356.768,258.450 357.436,260.083 357.801 C 260.542 357.904,261.779 358.180,262.833 358.416 C 265.191 358.943,265.927 359.091,267.417 359.338 C 268.058 359.445,269.071 359.630,269.667 359.751 C 271.798 360.182,278.652 361.002,282.833 361.326 C 288.161 361.739,300.496 361.471,305.083 360.843 C 305.725 360.755,306.925 360.602,307.750 360.502 C 310.152 360.212,311.262 360.023,315.667 359.159 C 317.660 358.768,323.249 357.418,324.250 357.085 C 324.617 356.964,325.479 356.698,326.167 356.495 C 329.936 355.384,335.660 353.287,338.385 352.021 C 338.952 351.757,339.717 351.410,340.083 351.249 C 342.300 350.274,346.312 348.216,349.000 346.675 C 349.688 346.281,350.512 345.809,350.833 345.626 C 351.645 345.164,356.398 342.122,356.500 342.000 C 356.546 341.945,357.221 341.458,358.000 340.918 C 359.842 339.640,364.578 335.981,365.000 335.509 C 365.046 335.458,365.645 334.929,366.331 334.333 C 367.017 333.737,367.737 333.100,367.931 332.917 C 369.560 331.380,370.343 330.606,372.083 328.811 C 373.183 327.677,374.496 326.265,375.000 325.672 C 375.504 325.080,376.083 324.405,376.286 324.173 C 378.076 322.126,381.147 317.948,382.773 315.347 C 383.494 314.195,384.164 313.102,384.262 312.918 C 384.361 312.734,384.781 311.983,385.195 311.250 C 385.867 310.063,387.667 306.416,387.667 306.244 C 387.667 306.207,387.843 305.781,388.058 305.297 C 388.273 304.813,388.617 303.967,388.823 303.417 C 389.028 302.867,389.272 302.229,389.366 302.000 C 390.322 299.657,392.012 293.444,392.652 289.917 C 392.852 288.817,393.118 287.354,393.244 286.667 C 393.369 285.979,393.553 284.667,393.651 283.750 C 393.750 282.833,393.922 281.296,394.033 280.333 C 394.307 277.964,394.307 265.907,394.033 263.250 C 393.609 259.139,393.370 257.323,392.829 254.125 C 392.740 253.598,392.587 252.698,392.491 252.125 C 392.394 251.552,392.213 250.671,392.088 250.167 C 391.964 249.662,391.777 248.838,391.673 248.333 C 391.292 246.490,391.082 245.624,390.583 243.833 C 390.468 243.421,390.295 242.783,390.198 242.417 C 389.685 240.478,387.450 233.820,386.673 231.917 C 386.599 231.733,386.255 230.871,385.909 230.000 C 383.548 224.046,378.532 214.300,375.617 210.000 C 375.337 209.588,374.985 209.063,374.834 208.833 C 373.604 206.966,372.055 204.710,371.879 204.529 C 371.761 204.407,371.579 204.144,371.474 203.945 C 371.270 203.559,367.574 198.596,366.850 197.736 C 366.612 197.453,366.142 196.891,365.806 196.486 C 365.471 196.081,364.721 195.195,364.140 194.516 C 363.559 193.837,362.794 192.937,362.440 192.516 C 362.086 192.095,361.448 191.370,361.023 190.905 C 360.598 190.441,360.009 189.775,359.713 189.426 C 356.503 185.630,348.170 177.485,342.833 172.926 C 342.329 172.495,341.767 172.010,341.583 171.847 C 341.400 171.685,340.800 171.189,340.250 170.746 C 339.700 170.303,339.212 169.894,339.167 169.836 C 339.121 169.779,337.996 168.887,336.667 167.855 C 335.337 166.823,334.137 165.889,334.000 165.781 C 333.862 165.672,333.187 165.171,332.500 164.668 C 331.812 164.164,331.225 163.696,331.194 163.626 C 331.164 163.557,331.067 163.500,330.979 163.500 C 330.891 163.500,330.729 163.421,330.618 163.324 C 330.154 162.918,327.922 161.322,326.877 160.649 C 326.257 160.250,325.712 159.884,325.667 159.834 C 325.621 159.785,324.946 159.334,324.167 158.831 C 323.387 158.328,322.725 157.860,322.694 157.792 C 322.664 157.723,322.573 157.667,322.492 157.667 C 322.411 157.667,321.706 157.254,320.924 156.750 C 320.142 156.246,319.452 155.833,319.390 155.833 C 319.327 155.833,319.158 155.728,319.013 155.599 C 318.781 155.392,316.245 153.878,314.282 152.773 C 313.898 152.557,313.321 152.232,313.000 152.051 C 309.546 150.099,308.224 149.401,304.500 147.561 C 299.435 145.060,297.236 144.034,294.858 143.062 C 294.065 142.738,292.929 142.262,292.333 142.004 C 291.379 141.592,289.637 140.898,286.250 139.581 C 284.935 139.070,282.902 138.362,279.333 137.175 C 275.008 135.737,273.154 135.166,269.000 133.997 C 265.781 133.091,259.356 131.540,256.583 130.999 C 256.033 130.891,255.133 130.703,254.583 130.580 C 253.508 130.339,252.432 130.137,250.583 129.829 C 249.942 129.723,248.929 129.535,248.333 129.413 C 247.337 129.208,246.495 129.077,243.500 128.659 C 242.904 128.576,241.629 128.398,240.667 128.263 C 237.263 127.785,235.893 127.632,230.917 127.171 C 223.275 126.464,216.299 126.182,208.144 126.251 L 201.705 126.306 200.842 124.849 C 200.368 124.047,199.816 123.210,199.615 122.987 C 199.414 122.765,199.029 122.288,198.759 121.927 C 198.104 121.051,195.418 118.361,194.583 117.744 C 194.217 117.473,193.879 117.213,193.833 117.165 C 193.344 116.655,190.208 114.869,188.333 114.032 C 184.797 112.454,179.621 111.622,175.417 111.956 M69.101 169.962 C 68.653 170.304,67.931 170.846,67.497 171.167 C 66.536 171.878,64.867 173.146,64.511 173.434 C 63.875 173.950,62.728 174.871,62.495 175.052 C 61.325 175.961,60.557 176.584,60.417 176.736 C 60.325 176.835,59.800 177.290,59.250 177.746 C 58.700 178.203,58.212 178.617,58.167 178.666 C 58.121 178.716,57.522 179.242,56.836 179.837 C 52.778 183.349,46.184 189.986,42.515 194.252 C 41.575 195.344,40.371 196.771,40.069 197.149 C 39.893 197.368,39.557 197.781,39.322 198.065 C 33.877 204.649,26.911 215.855,23.667 223.250 C 23.466 223.708,23.192 224.308,23.058 224.583 C 22.572 225.579,20.342 231.119,19.838 232.583 C 19.074 234.800,18.576 236.323,18.341 237.167 C 18.226 237.579,18.063 238.092,17.980 238.306 C 17.710 238.995,16.368 244.234,16.009 246.000 C 15.926 246.412,15.745 247.275,15.609 247.917 C 15.237 249.670,15.044 250.768,14.834 252.333 C 14.729 253.112,14.574 254.162,14.490 254.667 C 13.332 261.579,13.269 274.341,14.356 281.652 C 14.444 282.240,14.586 283.252,14.673 283.902 C 14.983 286.224,15.333 288.239,15.745 290.083 C 15.889 290.725,16.088 291.625,16.187 292.083 C 16.522 293.634,16.630 294.080,17.055 295.667 C 17.814 298.497,18.705 301.345,19.534 303.583 C 20.087 305.077,21.629 308.920,21.837 309.322 C 21.911 309.466,22.102 309.883,22.260 310.250 C 23.792 313.791,26.125 318.028,28.513 321.611 C 29.699 323.390,32.601 327.313,32.992 327.667 C 33.042 327.712,33.568 328.313,34.161 329.000 C 37.397 332.756,42.816 337.700,47.333 341.018 C 48.379 341.786,51.850 344.167,51.924 344.167 C 51.964 344.167,52.508 344.485,53.132 344.875 C 54.779 345.902,54.778 345.902,56.417 346.835 C 58.533 348.040,58.343 347.940,61.000 349.261 C 63.078 350.293,64.777 351.096,66.083 351.662 C 66.267 351.741,66.843 352.000,67.365 352.237 C 67.886 352.473,68.417 352.667,68.545 352.667 C 68.673 352.667,68.829 352.718,68.892 352.781 C 68.955 352.844,69.249 352.985,69.545 353.095 C 71.136 353.684,74.526 354.883,75.250 355.113 C 75.708 355.258,76.608 355.545,77.250 355.752 C 80.451 356.782,86.934 358.352,90.583 358.982 C 96.807 360.055,100.572 360.479,107.000 360.832 C 113.206 361.172,120.337 360.938,127.667 360.152 C 130.534 359.845,135.730 359.042,138.583 358.466 C 139.500 358.281,140.550 358.072,140.917 358.003 C 143.480 357.519,149.053 356.214,152.667 355.253 C 153.904 354.924,155.179 354.589,155.500 354.510 C 156.656 354.224,158.107 353.816,159.333 353.433 C 160.021 353.218,161.071 352.902,161.667 352.732 C 165.393 351.666,174.554 348.380,179.453 346.352 C 181.031 345.699,182.831 344.932,183.453 344.648 C 184.075 344.363,184.733 344.073,184.917 344.003 C 186.541 343.384,195.868 338.725,199.667 336.635 C 202.567 335.039,210.170 330.442,211.250 329.631 C 211.342 329.562,212.354 328.886,213.500 328.128 C 214.646 327.370,215.608 326.694,215.639 326.625 C 215.669 326.556,215.766 326.500,215.854 326.500 C 215.943 326.500,216.217 326.312,216.464 326.083 C 216.711 325.854,217.002 325.667,217.109 325.667 C 217.217 325.667,217.331 325.605,217.361 325.529 C 217.392 325.453,218.017 324.967,218.750 324.448 C 220.572 323.161,225.581 319.331,226.423 318.583 C 226.629 318.400,227.084 318.025,227.434 317.750 C 230.937 314.997,235.592 310.738,241.003 305.333 C 244.952 301.390,247.766 298.363,250.686 294.918 C 250.996 294.552,251.389 294.102,251.559 293.918 C 251.728 293.734,252.066 293.321,252.309 293.000 C 252.551 292.679,252.887 292.267,253.055 292.083 C 253.222 291.900,254.006 290.925,254.797 289.917 C 255.588 288.908,256.276 288.046,256.327 288.000 C 256.377 287.954,256.642 287.617,256.915 287.250 C 257.188 286.883,257.503 286.471,257.615 286.333 C 258.747 284.944,262.939 279.012,265.092 275.750 C 266.584 273.491,266.494 273.632,267.486 271.977 C 267.890 271.302,268.265 270.712,268.319 270.667 C 268.373 270.621,268.525 270.396,268.656 270.167 C 268.923 269.704,271.376 265.535,271.845 264.750 C 272.009 264.475,272.376 263.800,272.660 263.250 C 272.945 262.700,273.335 261.987,273.527 261.667 C 274.022 260.841,275.538 257.948,276.768 255.483 L 277.817 253.383 279.117 253.170 C 285.717 252.085,292.929 247.773,296.167 242.977 C 296.487 242.501,296.826 242.031,296.919 241.931 C 300.852 237.705,302.732 228.126,301.181 220.215 C 299.607 212.180,292.961 204.316,285.082 201.162 C 282.842 200.266,282.167 200.070,279.050 199.418 C 277.400 199.072,271.794 199.070,270.219 199.415 C 269.594 199.552,268.671 199.749,268.167 199.854 C 262.287 201.078,256.060 205.334,252.287 210.708 C 247.961 216.872,246.233 225.517,247.997 232.177 C 248.105 232.584,248.272 233.217,248.369 233.583 C 248.811 235.258,249.925 238.104,250.491 239.000 C 250.578 239.137,250.850 239.625,251.096 240.083 C 251.564 240.955,253.352 243.366,254.514 244.692 L 255.194 245.468 254.074 247.609 C 253.056 249.553,252.619 250.352,251.307 252.667 C 251.073 253.079,250.346 254.311,249.691 255.404 C 249.036 256.498,248.500 257.425,248.500 257.465 C 248.500 257.506,248.238 257.896,247.917 258.333 C 247.596 258.770,247.333 259.169,247.333 259.218 C 247.333 259.444,242.349 266.710,242.128 266.806 C 242.058 266.836,242.000 266.961,242.000 267.083 C 242.000 267.206,241.941 267.331,241.869 267.361 C 241.797 267.392,241.181 268.167,240.500 269.083 C 239.819 270.000,239.072 270.981,238.839 271.263 C 238.607 271.545,238.192 272.065,237.917 272.420 C 237.304 273.208,234.972 276.052,234.843 276.167 C 234.791 276.212,234.494 276.550,234.183 276.917 C 231.005 280.656,225.536 286.306,221.917 289.588 C 220.908 290.502,219.933 291.405,219.750 291.593 C 219.567 291.782,218.892 292.382,218.250 292.927 C 217.608 293.471,217.046 293.955,217.000 294.001 C 216.885 294.117,214.993 295.718,214.583 296.046 C 214.400 296.193,213.912 296.585,213.500 296.917 C 212.382 297.817,212.392 297.809,210.417 299.339 C 207.724 301.425,207.349 301.712,206.773 302.126 C 206.485 302.333,206.109 302.622,205.937 302.767 C 205.766 302.913,204.341 303.925,202.771 305.017 C 201.201 306.108,199.838 307.064,199.742 307.142 C 199.647 307.219,199.493 307.313,199.402 307.350 C 199.091 307.476,196.250 309.416,196.194 309.542 C 196.164 309.610,196.073 309.667,195.992 309.667 C 195.911 309.667,195.206 310.079,194.424 310.583 C 193.642 311.087,192.927 311.500,192.835 311.500 C 192.742 311.500,192.667 311.566,192.667 311.647 C 192.667 311.728,192.535 311.839,192.375 311.893 C 192.215 311.947,191.633 312.288,191.083 312.651 C 190.533 313.014,189.821 313.443,189.500 313.605 C 189.179 313.767,188.879 313.941,188.833 313.991 C 188.723 314.113,188.146 314.473,187.833 314.616 C 187.696 314.679,186.533 315.340,185.250 316.086 C 183.967 316.831,182.429 317.707,181.833 318.032 C 181.237 318.357,180.375 318.830,179.917 319.083 C 174.490 322.080,167.953 325.218,162.917 327.244 C 161.633 327.761,160.415 328.255,160.208 328.342 C 159.077 328.819,159.144 328.795,154.917 330.274 C 153.725 330.691,152.525 331.094,152.250 331.168 C 151.975 331.243,151.112 331.502,150.333 331.745 C 148.061 332.454,145.584 333.126,142.917 333.759 C 142.000 333.976,140.912 334.242,140.500 334.349 C 140.087 334.456,139.450 334.602,139.083 334.673 C 133.922 335.675,130.226 336.257,126.500 336.656 C 125.629 336.749,124.092 336.914,123.083 337.023 C 119.971 337.360,107.284 337.408,103.843 337.096 C 95.769 336.363,90.967 335.618,86.500 334.404 C 85.629 334.167,84.392 333.833,83.750 333.662 C 83.108 333.491,81.721 333.043,80.667 332.667 C 79.612 332.291,78.563 331.921,78.333 331.844 C 72.397 329.866,64.835 325.453,58.747 320.417 C 53.551 316.118,47.212 308.051,43.752 301.333 C 42.729 299.349,41.167 296.185,41.167 296.099 C 41.167 296.050,40.971 295.576,40.733 295.046 C 34.641 281.527,33.297 265.147,37.105 250.833 C 37.337 249.963,37.661 248.725,37.826 248.083 C 37.991 247.442,38.205 246.729,38.302 246.500 C 38.399 246.271,38.637 245.558,38.830 244.917 C 39.024 244.275,39.375 243.262,39.610 242.667 C 39.846 242.071,40.098 241.433,40.169 241.250 C 40.241 241.067,40.419 240.643,40.566 240.308 C 40.713 239.973,40.833 239.654,40.833 239.598 C 40.833 239.256,43.774 233.152,45.136 230.667 C 45.413 230.162,45.803 229.450,46.003 229.083 C 47.329 226.657,52.676 218.584,53.343 218.000 C 53.396 217.954,53.679 217.579,53.973 217.167 C 54.759 216.063,55.465 215.149,55.970 214.581 C 56.216 214.304,56.714 213.704,57.077 213.247 C 59.517 210.178,67.527 201.869,70.484 199.339 C 71.069 198.838,71.631 198.350,71.732 198.254 C 72.030 197.974,74.584 195.906,75.583 195.136 C 76.795 194.203,76.795 194.711,75.586 190.833 C 75.343 190.054,74.998 188.892,74.820 188.250 C 74.641 187.608,74.378 186.671,74.234 186.167 C 74.091 185.662,73.837 184.725,73.670 184.083 C 73.503 183.442,73.243 182.467,73.093 181.917 C 72.942 181.367,72.755 180.617,72.677 180.250 C 72.599 179.883,72.300 178.646,72.013 177.500 C 71.726 176.354,71.421 175.117,71.336 174.750 C 70.856 172.682,70.501 171.061,70.251 169.792 C 70.136 169.208,70.082 169.216,69.101 169.962 " stroke="none" fill="#764abc" fill-rule="evenodd"></path></g></svg>